<?xml version="1.0" standalone="no"?>
<!DOCTYPE svg PUBLIC "-//W3C//DTD SVG 20010904//EN"
 "http://www.w3.org/TR/2001/REC-SVG-20010904/DTD/svg10.dtd">
<svg version="1.0" xmlns="http://www.w3.org/2000/svg"
 width="918.000000pt" height="918.000000pt" viewBox="0 0 918.000000 918.000000"
 preserveAspectRatio="xMidYMid meet">
<metadata>
Created by potrace 1.11, written by Peter Selinger 2001-2013
</metadata>
<g transform="translate(0.000000,918.000000) scale(0.100000,-0.100000)"
fill="#000000" stroke="none">
<path d="M312 4608 l3 -2443 1472 -3 1472 -2 3 102 3 103 103 3 102 3 0 104 0
105 105 0 104 0 3 103 3 102 103 3 102 3 0 104 0 105 105 0 105 0 0 105 0 105
105 0 105 0 0 1395 0 1394 -102 3 -103 3 -3 102 -3 102 -102 3 -102 3 -3 102
-3 102 -102 3 -102 3 -3 102 -3 102 -102 3 -102 3 -3 102 -3 102 -102 3 -102
3 -3 103 -3 102 -1474 0 -1475 0 2 -2442z m3016 2054 c3 -32 2 -33 -30 -30
-22 2 -34 9 -36 21 -6 33 6 49 35 45 24 -2 29 -8 31 -36z m0 -204 c-3 -29 -6
-33 -33 -33 -21 0 -31 5 -33 18 -6 32 6 47 38 47 29 0 31 -2 28 -32z m210 0
c-3 -29 -6 -33 -33 -33 -21 0 -31 5 -33 18 -6 32 6 47 38 47 29 0 31 -2 28
-32z m-210 -210 c-3 -29 -6 -33 -33 -33 -21 0 -31 5 -33 18 -6 32 6 47 38 47
29 0 31 -2 28 -32z m210 0 c-3 -29 -6 -33 -33 -33 -21 0 -31 5 -33 18 -6 32 6
47 38 47 29 0 31 -2 28 -32z m207 -3 c0 -27 -3 -30 -30 -30 -21 0 -31 5 -33
18 -6 33 6 49 35 45 24 -3 28 -8 28 -33z m-417 -207 c-3 -29 -6 -33 -33 -33
-21 0 -31 5 -33 18 -6 32 6 47 38 47 29 0 31 -2 28 -32z m210 0 c-3 -29 -6
-33 -33 -33 -21 0 -31 5 -33 18 -6 32 6 47 38 47 29 0 31 -2 28 -32z m210 0
c-3 -29 -6 -33 -33 -33 -21 0 -31 5 -33 18 -6 32 6 47 38 47 29 0 31 -2 28
-32z m207 -3 c0 -27 -3 -30 -30 -30 -27 0 -30 4 -33 33 -3 32 -2 33 30 30 29
-3 33 -6 33 -33z m-835 -475 l0 -300 -810 0 -810 0 0 300 0 300 810 0 810 0 0
-300z m210 -690 c0 -28 -3 -30 -35 -30 -32 0 -35 2 -35 30 0 28 3 30 35 30 32
0 35 -2 35 -30z m0 -210 c0 -28 -3 -30 -35 -30 -32 0 -35 2 -35 30 0 28 3 30
35 30 32 0 35 -2 35 -30z m210 0 c0 -28 -3 -30 -35 -30 -32 0 -35 2 -35 30 0
28 3 30 35 30 32 0 35 -2 35 -30z m-212 -208 c3 -32 2 -33 -30 -30 -22 2 -34
9 -36 21 -6 33 6 49 35 45 24 -2 29 -8 31 -36z m210 0 c3 -32 2 -33 -30 -30
-22 2 -34 9 -36 21 -6 33 6 49 35 45 24 -2 29 -8 31 -36z m210 1 c3 -32 2 -33
-32 -33 -33 0 -36 3 -36 28 0 36 8 44 40 40 20 -2 26 -9 28 -35z m-420 -211
c3 -32 2 -33 -30 -30 -22 2 -34 9 -36 21 -6 33 6 49 35 45 24 -2 29 -8 31 -36z
m210 0 c3 -32 2 -33 -30 -30 -22 2 -34 9 -36 21 -6 33 6 49 35 45 24 -2 29 -8
31 -36z m210 1 c3 -32 2 -33 -32 -33 -33 0 -36 3 -36 28 0 36 8 44 40 40 20
-2 26 -9 28 -35z m210 0 c3 -32 2 -33 -32 -33 -33 0 -36 3 -36 28 0 36 8 44
40 40 20 -2 26 -9 28 -35z m-843 -533 l0 -355 -807 -3 -808 -2 0 360 0 360
808 -2 807 -3 0 -355z m213 -532 c-3 -29 -6 -33 -33 -33 -21 0 -31 5 -33 18
-6 32 6 47 38 47 29 0 31 -2 28 -32z m210 0 c-3 -29 -6 -33 -33 -33 -21 0 -31
5 -33 18 -6 32 6 47 38 47 29 0 31 -2 28 -32z m210 0 c-3 -29 -6 -33 -33 -33
-21 0 -31 5 -33 18 -6 32 6 47 38 47 29 0 31 -2 28 -32z m210 0 c-3 -29 -6
-33 -33 -33 -27 0 -30 4 -33 33 -3 31 -2 32 33 32 35 0 36 -1 33 -32z m-630
-210 c-3 -29 -6 -33 -33 -33 -21 0 -31 5 -33 18 -6 32 6 47 38 47 29 0 31 -2
28 -32z m210 0 c-3 -29 -6 -33 -33 -33 -21 0 -31 5 -33 18 -6 32 6 47 38 47
29 0 31 -2 28 -32z m210 0 c-3 -29 -6 -33 -33 -33 -21 0 -31 5 -33 18 -6 32 6
47 38 47 29 0 31 -2 28 -32z m-420 -210 c-3 -29 -6 -33 -33 -33 -21 0 -31 5
-33 18 -6 32 6 47 38 47 29 0 31 -2 28 -32z m210 0 c-3 -29 -6 -33 -33 -33
-21 0 -31 5 -33 18 -6 32 6 47 38 47 29 0 31 -2 28 -32z m-208 -208 c0 -28 -3
-30 -35 -30 -30 0 -35 3 -35 23 0 31 7 37 42 37 24 0 28 -4 28 -30z"/>
<path d="M5010 4605 l0 -2445 1475 0 1475 0 0 105 0 105 105 0 105 0 0 105 0
105 105 0 105 0 0 105 0 105 105 0 105 0 0 105 0 105 105 0 105 0 0 105 0 105
105 0 105 0 -2 1398 -3 1397 -102 3 -102 3 -3 102 -3 102 -102 3 -102 3 -3
102 -3 102 -102 3 -103 3 0 99 0 100 -105 0 -105 0 0 105 0 105 -105 0 -105 0
0 105 0 105 -1475 0 -1475 0 0 -2445z m3018 2058 c-2 -23 -8 -29 -35 -31 -31
-3 -33 -1 -33 27 0 29 3 31 36 31 33 0 35 -2 32 -27z m0 -205 c2 -16 0 -29 -5
-29 -50 -8 -58 -4 -61 29 -3 32 -2 33 30 30 28 -2 34 -7 36 -30z m210 0 c3
-26 1 -28 -32 -28 -33 0 -36 2 -36 31 0 28 2 30 33 27 27 -2 33 -8 35 -30z
m-210 -210 c2 -16 -1 -28 -7 -29 -52 -6 -56 -4 -59 29 -3 32 -2 33 30 30 28
-2 34 -7 36 -30z m210 0 c3 -26 1 -28 -32 -28 -33 0 -36 2 -36 31 0 28 2 30
33 27 27 -2 33 -8 35 -30z m202 2 c0 -27 -3 -30 -30 -30 -27 0 -30 3 -30 30 0
27 3 30 30 30 27 0 30 -3 30 -30z m-412 -212 c2 -19 -2 -27 -15 -30 -36 -8
-53 3 -53 34 0 27 2 29 33 26 26 -2 33 -8 35 -30z m210 0 c3 -26 1 -28 -32
-28 -33 0 -36 2 -36 31 0 28 2 30 33 27 27 -2 33 -8 35 -30z m202 2 c0 -27 -3
-30 -30 -30 -27 0 -30 3 -30 30 0 27 3 30 30 30 27 0 30 -3 30 -30z m210 0 c0
-27 -3 -30 -30 -30 -27 0 -30 3 -30 30 0 27 3 30 30 30 27 0 30 -3 30 -30z
m-832 -482 l2 -298 -810 0 -810 0 0 300 0 300 808 -2 807 -3 3 -297z m210
-685 c-2 -23 -8 -29 -35 -31 -31 -3 -33 -1 -33 27 0 29 3 31 36 31 33 0 35 -2
32 -27z m2 -213 c0 -28 -3 -30 -35 -30 -32 0 -35 2 -35 30 0 28 3 30 35 30 32
0 35 -2 35 -30z m208 3 c-2 -23 -8 -29 -35 -31 -31 -3 -33 -1 -33 27 0 29 3
31 36 31 33 0 35 -2 32 -27z m-210 -210 c-2 -23 -8 -29 -35 -31 -31 -3 -33 -1
-33 27 0 29 3 31 36 31 33 0 35 -2 32 -27z m210 0 c-2 -23 -8 -29 -35 -31 -31
-3 -33 -1 -33 27 0 29 3 31 36 31 33 0 35 -2 32 -27z m202 -3 c0 -27 -3 -30
-30 -30 -27 0 -30 3 -30 30 0 27 3 30 30 30 27 0 30 -3 30 -30z m-412 -207
c-2 -23 -8 -29 -35 -31 -31 -3 -33 -1 -33 27 0 29 3 31 36 31 33 0 35 -2 32
-27z m210 0 c-2 -23 -8 -29 -35 -31 -31 -3 -33 -1 -33 27 0 29 3 31 36 31 33
0 35 -2 32 -27z m204 -3 c-4 -25 -9 -30 -33 -30 -26 0 -29 4 -29 30 0 27 3 30
33 30 32 0 33 -2 29 -30z m208 0 c0 -27 -3 -30 -30 -30 -27 0 -30 3 -30 30 0
27 3 30 30 30 27 0 30 -3 30 -30z m-832 -532 l-3 -353 -807 -3 -808 -2 0 355
0 355 810 0 810 0 -2 -352z m207 -533 c0 -27 -3 -30 -30 -30 -27 0 -30 4 -33
33 -3 32 -2 33 30 30 29 -3 33 -6 33 -33z m213 3 c3 -21 -1 -28 -15 -29 -10 0
-26 -2 -35 -4 -14 -3 -18 4 -18 32 0 33 1 34 33 31 27 -2 33 -8 35 -30z m202
2 c0 -27 -3 -30 -30 -30 -27 0 -30 3 -30 30 0 27 3 30 30 30 27 0 30 -3 30
-30z m210 0 c0 -16 -3 -30 -7 -31 -55 -6 -53 -7 -53 28 0 30 3 33 30 33 27 0
30 -3 30 -30z m-622 -211 c3 -28 -12 -40 -44 -35 -13 2 -20 13 -22 35 -3 31
-2 32 30 29 27 -2 34 -8 36 -29z m210 0 c2 -21 -2 -28 -23 -33 -35 -9 -45 -1
-45 35 0 28 2 30 33 27 26 -2 33 -8 35 -29z m202 1 c0 -27 -3 -30 -30 -30 -27
0 -30 3 -30 30 0 27 3 30 30 30 27 0 30 -3 30 -30z m-415 -215 c0 -27 -3 -30
-30 -30 -27 0 -30 4 -33 33 -3 32 -2 33 30 30 29 -3 33 -6 33 -33z m213 6 c5
-31 -11 -45 -42 -37 -21 5 -26 12 -26 37 0 28 2 30 33 27 25 -2 33 -8 35 -27z
m-210 -213 c3 -26 1 -28 -32 -28 -33 0 -36 2 -36 31 0 28 2 30 33 27 27 -2 33
-8 35 -30z"/>
</g>
</svg>
